<svg xmlns="http://www.w3.org/2000/svg" viewBox="0 0 64 64">
  <defs>
    <linearGradient id="wg" x1="0%" y1="0%" x2="100%" y2="100%">
      <stop offset="0%" stop-color="#f59e0b"/>
      <stop offset="100%" stop-color="#4f46e5"/>
    </linearGradient>
  </defs>
  <rect x="4" y="4" width="56" height="56" rx="14" fill="url(#wg)"/>
  <g fill="#ffffff">
    <path d="M14 42 L18 22 L22 22 L25 35 L28 22 L32 22 L28 42 L24 42 L22 32 L20 42 Z"/>
    <path d="M34 22 L44 22 Q50 22 50 28 Q50 32 46 34 L52 42 L46 42 L41 36 L40 36 L40 42 L34 42 Z M40 30 L43.5 30 Q46 30 46 28 Q46 26 43.5 26 L40 26 Z"/>
  </g>
</svg>
